<svg width="30" height="30" fill="none" xmlns="http://www.w3.org/2000/svg"><g clip-path="url(#clip0)" fill="#323232"><path d="M16.25 21.875a1.254 1.254 0 01-1.137-1.775L17.5 15l-2.387-5.1a1.254 1.254 0 011.137-1.775c.188 0 .35.037.512.113l12.5 5.625c.438.187.738.625.738 1.137s-.3.95-.738 1.137l-12.5 5.625a1.182 1.182 0 01-.512.113z"/><path d="M0 15C0 7.419 6.169 1.25 13.75 1.25a13.62 13.62 0 0110.661 5.091 1.25 1.25 0 11-1.946 1.568A11.137 11.137 0 0013.75 3.75C7.548 3.75 2.5 8.796 2.5 15s5.048 11.25 11.25 11.25c3.41 0 6.585-1.516 8.714-4.159a1.25 1.25 0 111.946 1.568 13.617 13.617 0 01-10.66 5.091C6.169 28.75 0 22.581 0 15z"/></g><defs><clipPath id="clip0"><path fill="#fff" d="M0 0h30v30H0z"/></clipPath></defs></svg>