<svg width="35" height="35" fill="none" xmlns="http://www.w3.org/2000/svg"><path d="M32.266 30.898c0 .756-.612 1.368-1.368 1.368h-1.367v1.367a1.367 1.367 0 11-2.734 0v-1.367H25.43a1.367 1.367 0 110-2.735h1.367v-1.367a1.367 1.367 0 112.734 0v1.367h1.367c.756 0 1.368.612 1.368 1.367zm0-21.328v13.125a1.367 1.367 0 11-2.735 0V10.937h-2.734v4.102a1.367 1.367 0 11-2.735 0v-4.101H10.938v4.101a1.367 1.367 0 11-2.734 0v-4.101H5.47v21.328h14.49a1.367 1.367 0 110 2.734H4.1a1.367 1.367 0 01-1.367-1.367V9.57c0-.755.612-1.367 1.368-1.367h4.166C8.81 3.59 12.744 0 17.5 0s8.69 3.59 9.232 8.203h4.166c.756 0 1.368.612 1.368 1.367zM23.97 8.203c-.522-3.1-3.225-5.469-6.471-5.469s-5.949 2.37-6.47 5.47h12.94z" fill="#000"/></svg>