<svg width="31" height="31" fill="none" xmlns="http://www.w3.org/2000/svg"><g clip-path="url(#clip0)" fill="#000"><path d="M2.722 15.278H7.48v2.12a.454.454 0 10.908 0v-6.414a.454.454 0 00-.454-.454H3.586a.454.454 0 00-.443.354l-.864 3.84a.454.454 0 00.443.554zm1.227-3.84H7.48v2.931H3.29l.659-2.931zM7.79 21.63a.454.454 0 00-.335.548.907.907 0 11-.883-.693.455.455 0 000-.909 1.815 1.815 0 100 3.633 1.814 1.814 0 001.766-2.244.454.454 0 00-.549-.335zm15.543-.013a.454.454 0 00-.441.56.913.913 0 01-.883 1.123.912.912 0 01-.908-.907c0-.5.408-.908.908-.909a.455.455 0 000-.908c-.486 0-.942.19-1.285.532-.343.343-.532.8-.532 1.285 0 .485.19.94.532 1.284.343.343.8.532 1.285.532.485 0 .94-.19 1.284-.532a1.806 1.806 0 00.481-1.712.453.453 0 00-.441-.348z"/><path d="M30.546 13.497h-1.968v-1.63h.757a.454.454 0 100-.908h-.757V9.33h1.362a.454.454 0 100-.908h-1.362v-1.63h1.968a.454.454 0 000-.908h-2.047a1.355 1.355 0 00-1.283-.908H10.659a1.35 1.35 0 00-.963.4 1.354 1.354 0 00-.4.962v2.376H3.694c-1.07 0-1.98.73-2.215 1.773L.79 13.542a11.381 11.381 0 00-.276 2.493v4.178A.908.908 0 000 21.03v.909c0 .5.407.908.908.908h2.06a3.638 3.638 0 003.604 3.178c1.85 0 3.38-1.389 3.603-3.178h8.23a3.637 3.637 0 003.604 3.178 3.637 3.637 0 003.604-3.184 1.364 1.364 0 001.24-1.357v-3.633h.363a1.355 1.355 0 001.283-.908h1.441a.454.454 0 100-.908h-1.362v-1.63h1.968a.454.454 0 100-.908zm-28.869.245l.688-3.057a1.355 1.355 0 011.329-1.063h5.602v10.372a3.624 3.624 0 00-5.556.128H1.423v-4.087c0-.77.086-1.542.254-2.293zM.908 21.03h2.297c-.118.29-.198.596-.237.909H.908v-.909zm5.664 4.087a2.728 2.728 0 01-2.725-2.724 2.731 2.731 0 012.725-2.725 2.728 2.728 0 012.725 2.725 2.728 2.728 0 01-2.725 2.724zm15.437 0a2.728 2.728 0 01-2.725-2.724 2.728 2.728 0 012.725-2.725 2.728 2.728 0 012.724 2.725 2.728 2.728 0 01-2.724 2.724zm5.207-8.173H11.567a.455.455 0 000 .907h14.377v3.633a.455.455 0 01-.334.438 3.638 3.638 0 00-3.601-3.162 3.637 3.637 0 00-3.604 3.178h-8.2V6.337c0-.25.204-.454.454-.454h16.557c.25 0 .452.204.454.452v10.156a.456.456 0 01-.454.453z"/></g><defs><clipPath id="clip0"><path fill="#fff" d="M0 0h31v31H0z"/></clipPath></defs></svg>