<svg width="22" height="22" fill="none" xmlns="http://www.w3.org/2000/svg"><g clip-path="url(#clip0)" fill="#fff"><path d="M6.074 5.007a.812.812 0 00-1.149 0 5.555 5.555 0 00-1.589 4.502.813.813 0 101.618-.161 3.935 3.935 0 011.12-3.192.812.812 0 000-1.15z"/><path d="M9.293 0C4.17 0 0 4.169 0 9.293s4.169 9.293 9.293 9.293 9.293-4.169 9.293-9.293S14.417 0 9.293 0zm0 16.96c-4.228 0-7.667-3.439-7.667-7.667s3.44-7.667 7.667-7.667c4.228 0 7.668 3.44 7.668 7.667 0 4.228-3.44 7.668-7.668 7.668z"/><path d="M21.762 20.613l-5.907-5.907a.812.812 0 10-1.149 1.15l5.907 5.906a.81.81 0 001.149 0 .813.813 0 000-1.15z"/></g><defs><clipPath id="clip0"><path fill="#fff" d="M0 0h22v22H0z"/></clipPath></defs></svg>