<?xml version="1.0" standalone="no"?>
<!DOCTYPE svg PUBLIC "-//W3C//DTD SVG 20010904//EN"
 "http://www.w3.org/TR/2001/REC-SVG-20010904/DTD/svg10.dtd">
<svg version="1.0" xmlns="http://www.w3.org/2000/svg"
 width="30.000000pt" height="39.000000pt" viewBox="0 0 30.000000 39.000000"
 preserveAspectRatio="xMidYMid meet">

<g transform="translate(0.000000,39.000000) scale(0.100000,-0.100000)"
fill="#000000" stroke="none">
<path d="M88 377 c-16 -6 -28 -16 -28 -21 0 -7 -3 -7 -8 1 -11 17 -40 -8 -46
-40 -6 -32 17 -55 38 -38 19 16 39 6 54 -27 6 -15 37 -45 68 -67 69 -50 84
-73 58 -92 -11 -8 -29 -12 -41 -10 -39 7 -49 -10 -15 -27 41 -21 52 -20 52 5
0 11 4 18 9 15 5 -3 17 6 26 20 13 20 14 28 5 34 -7 4 -9 13 -5 19 5 9 10 9
21 0 8 -6 18 -8 22 -4 4 4 -2 12 -12 19 -11 6 -27 18 -36 26 -9 8 -25 20 -35
26 -10 6 -23 19 -29 30 -6 10 -17 23 -23 27 -18 11 -16 56 2 63 23 9 18 28
-12 42 -31 14 -28 14 -65 -1z"/>
<path d="M54 226 c-3 -9 -4 -23 0 -31 3 -8 1 -15 -4 -15 -6 0 -10 -16 -10 -36
0 -28 3 -35 18 -32 14 3 17 14 17 61 1 58 -10 83 -21 53z"/>
</g>
</svg>
