<svg width="31" height="31" fill="none" xmlns="http://www.w3.org/2000/svg"><path d="M18.3 2.728a.609.609 0 00-.712-.476.566.566 0 00-.218.09.606.606 0 00-.257.622.63.63 0 00.165.31.61.61 0 00.764.075.582.582 0 00.224-.271.63.63 0 00.046-.232c0-.04-.004-.08-.012-.118zm-6.411 25.308a.617.617 0 00-.257-.385.647.647 0 00-.218-.09.624.624 0 00-.35.034.617.617 0 00-.328.328.617.617 0 00-.034.35.617.617 0 00.258.384.61.61 0 00.336.103.61.61 0 00.428-.178.61.61 0 00.165-.546zm4.966-13.141h-1.749v-2.951a.605.605 0 10-1.21 0V15.5c0 .334.27.605.605.605h2.354a.606.606 0 000-1.21z" fill="#000"/><path d="M26.126 13.431h-1.603a10.16 10.16 0 00-.453-1.555l1.592-1.015a.606.606 0 00.184-.836l-1.213-1.903a.606.606 0 00-.836-.185l-1.492.952c-.35-.412-.73-.796-1.14-1.148L20.462.547A.605.605 0 0019.859 0H9.143a.605.605 0 00-.603.547L7.837 7.74a10.213 10.213 0 00-3.568 7.76c0 3.099 1.384 5.88 3.568 7.759l.703 7.194c.03.31.291.547.603.547h10.716a.605.605 0 00.603-.547l.703-7.194a10.226 10.226 0 003.473-6.36h1.488a.605.605 0 00.605-.605v-2.257a.605.605 0 00-.605-.606zM9.473 3.451h5.993a.605.605 0 100-1.21H9.591l.1-1.03h9.62l.544 5.572a10.171 10.171 0 00-5.354-1.515 10.17 10.17 0 00-5.354 1.515l.326-3.332zM19.529 27.55h-5.993a.606.606 0 000 1.21h5.875l-.1 1.03H9.69l-.544-5.572a10.171 10.171 0 005.354 1.515 10.17 10.17 0 005.354-1.515l-.326 3.332zm-5.028-3.027c-4.974 0-9.022-4.047-9.022-9.022 0-4.975 4.048-9.021 9.022-9.021s9.022 4.046 9.022 9.021c0 4.974-4.048 9.021-9.022 9.021zM23.035 9.86l.902-.575.563.881-.932.595c-.163-.31-.34-.61-.533-.9zm2.485 5.83h-.788a9.814 9.814 0 00-.034-1.047h.822v1.046z" fill="#000"/><path d="M14.5 7.776c-4.258 0-7.723 3.465-7.723 7.724 0 4.26 3.465 7.724 7.724 7.724s7.724-3.465 7.724-7.724c0-4.26-3.465-7.724-7.724-7.724zm.606 14.21v-.373a.605.605 0 10-1.21 0v.372a6.525 6.525 0 01-5.88-5.88h.372a.605.605 0 000-1.21h-.373a6.525 6.525 0 015.88-5.88v.372a.605.605 0 001.211 0v-.372a6.525 6.525 0 015.88 5.88h-.372a.606.606 0 000 1.21h.372a6.525 6.525 0 01-5.88 5.88z" fill="#000"/></svg>