<svg width="30" height="30" fill="none" xmlns="http://www.w3.org/2000/svg"><g clip-path="url(#clip0)"><path d="M1.875 2.041C-.482 4.49 0 7.091 0 14.994c0 6.562-1.145 13.141 4.848 14.69 1.87.481 18.45.481 20.32-.003 2.495-.643 4.525-2.667 4.802-6.196.039-.492.039-16.481-.001-16.984C29.674 2.742 27.36.576 24.31.137c-.698-.1-.838-.13-4.423-.137C7.17.006 4.384-.56 1.875 2.041z" fill="url(#paint0_linear)"/><path d="M14.998 3.924c-4.54 0-8.85-.404-10.495 3.821-.68 1.745-.582 4.011-.582 7.256 0 2.848-.091 5.524.582 7.255 1.642 4.228 5.987 3.823 10.492 3.823 4.346 0 8.828.452 10.494-3.823.681-1.762.581-3.995.581-7.255 0-4.327.239-7.121-1.86-9.218-2.125-2.125-4.999-1.86-9.218-1.86h.005zm-.993 1.996c9.467-.015 10.672-1.067 10.007 13.554-.236 5.171-4.173 4.604-9.013 4.604-8.825 0-9.079-.253-9.079-9.082 0-8.931.7-9.071 8.085-9.078v.002zm6.905 1.839a1.329 1.329 0 100 2.658 1.329 1.329 0 000-2.658zm-5.912 1.554a5.688 5.688 0 000 11.376A5.686 5.686 0 0020.684 15a5.687 5.687 0 00-5.687-5.688zm0 1.996c4.88 0 4.887 7.385 0 7.385-4.88 0-4.888-7.385 0-7.385z" fill="#fff"/></g><defs><linearGradient id="paint0_linear" x1="1.933" y1="28.084" x2="29.814" y2="3.952" gradientUnits="userSpaceOnUse"><stop stop-color="#FD5"/><stop offset=".5" stop-color="#FF543E"/><stop offset="1" stop-color="#C837AB"/></linearGradient><clipPath id="clip0"><path fill="#fff" d="M0 0h30v30H0z"/></clipPath></defs></svg>