<svg width="30" height="30" fill="none" xmlns="http://www.w3.org/2000/svg"><path d="M28.648 16.577c.069-.578.102-1.084.102-1.577 0-7.582-6.168-13.75-13.75-13.75-.487 0-.992.033-1.577.103A8.705 8.705 0 008.75 0C3.926 0 0 3.925 0 8.75a8.71 8.71 0 001.353 4.673C1.283 14 1.25 14.507 1.25 15c0 7.582 6.168 13.75 13.75 13.75.487 0 .992-.033 1.577-.102A8.705 8.705 0 0021.25 30c4.824 0 8.75-3.925 8.75-8.75a8.708 8.708 0 00-1.352-4.673z" fill="#19BEF0"/><path opacity=".1" d="M21.25 29.688a8.705 8.705 0 01-4.673-1.353c-.585.07-1.09.102-1.577.102-7.54 0-13.676-6.101-13.744-13.626 0 .062-.006.127-.006.189 0 7.582 6.168 13.75 13.75 13.75.487 0 .992-.033 1.577-.102A8.705 8.705 0 0021.25 30c4.824 0 8.75-3.925 8.75-8.75 0-.044-.009-.087-.01-.13-.097 4.74-3.977 8.567-8.74 8.567z" fill="#010101"/><path opacity=".2" d="M8.75.313c1.664 0 3.275.466 4.673 1.352.585-.07 1.09-.103 1.577-.103 7.54 0 13.676 6.102 13.744 13.627 0-.062.006-.127.006-.189 0-7.582-6.168-13.75-13.75-13.75-.487 0-.992.033-1.577.103A8.705 8.705 0 008.75 0C3.926 0 0 3.925 0 8.75c0 .044.009.087.01.13C.106 4.14 3.986.313 8.75.313z" fill="#fff"/><path d="M15.317 12.641c-3.344-.9-4.067-1.368-4.067-2.641 0-.382 1.18-1.25 3.125-1.25 1.764 0 2.848.544 3.134.799a1.877 1.877 0 001.866 1.701 1.877 1.877 0 001.875-1.875C21.25 6.881 18.295 5 14.375 5 10.52 5 7.5 7.196 7.5 10c0 4.423 3.955 5.486 6.845 6.263 3.623.973 4.405 1.525 4.405 3.112 0 .765-1.461 1.875-3.75 1.875-2.527 0-3.696-.869-3.758-1.231-.184-1.058-.933-1.769-1.867-1.769A1.877 1.877 0 007.5 20.125C7.5 22.905 10.724 25 15 25c4.205 0 7.5-2.47 7.5-5.625 0-4.805-4.323-5.966-7.183-6.734z" fill="#fff"/><path d="M28.647 16.577c.046-.375.07-.716.085-1.046l-8.566-8.567c.685.684 1.084 1.505 1.084 2.411a1.877 1.877 0 01-1.875 1.875 1.877 1.877 0 01-1.866-1.701c-.286-.255-1.37-.799-3.134-.799-1.945 0-3.125.868-3.125 1.25 0 1.273.723 1.742 4.067 2.641 2.86.768 7.183 1.93 7.183 6.734C22.5 22.529 19.205 25 15 25c-2.393 0-4.454-.657-5.808-1.721l5.454 5.453c.119.003.234.018.354.018.487 0 .992-.033 1.577-.102A8.704 8.704 0 0021.25 30c4.824 0 8.75-3.925 8.75-8.75a8.708 8.708 0 00-1.353-4.673z" fill="url(#paint0_linear)"/><path d="M28.648 16.577c.069-.578.102-1.084.102-1.577 0-7.582-6.168-13.75-13.75-13.75-.487 0-.992.033-1.577.103A8.705 8.705 0 008.75 0C3.926 0 0 3.925 0 8.75a8.71 8.71 0 001.353 4.673C1.283 14 1.25 14.507 1.25 15c0 7.582 6.168 13.75 13.75 13.75.487 0 .992-.033 1.577-.102A8.705 8.705 0 0021.25 30c4.824 0 8.75-3.925 8.75-8.75a8.708 8.708 0 00-1.352-4.673z" fill="url(#paint1_linear)"/><defs><linearGradient id="paint0_linear" x1="10.333" y1="10.775" x2="27.213" y2="27.655" gradientUnits="userSpaceOnUse"><stop stop-color="#010101" stop-opacity=".1"/><stop offset="1" stop-color="#010101" stop-opacity="0"/></linearGradient><linearGradient id="paint1_linear" x1="-.457" y1="7.792" x2="30.457" y2="22.208" gradientUnits="userSpaceOnUse"><stop stop-color="#fff" stop-opacity=".2"/><stop offset="1" stop-color="#fff" stop-opacity="0"/></linearGradient></defs></svg>