<svg width="30" height="30" fill="none" xmlns="http://www.w3.org/2000/svg"><g clip-path="url(#clip0)"><path d="M15 30c8.285 0 15-6.716 15-15 0-8.284-6.715-15-15-15C6.718 0 .002 6.716.002 15c0 8.284 6.716 15 15 15z" fill="#55ACEE"/><path d="M24.188 10.78a7.154 7.154 0 01-2.06.564 3.595 3.595 0 001.577-1.983 7.2 7.2 0 01-2.276.87 3.586 3.586 0 00-6.11 3.27 10.178 10.178 0 01-7.39-3.746 3.585 3.585 0 001.11 4.787 3.56 3.56 0 01-1.625-.45v.046a3.587 3.587 0 002.876 3.515 3.571 3.571 0 01-1.619.062 3.59 3.59 0 003.35 2.49 7.194 7.194 0 01-5.309 1.485 10.141 10.141 0 005.496 1.61c6.595 0 10.201-5.462 10.201-10.2 0-.156-.003-.31-.01-.464a7.27 7.27 0 001.789-1.856z" fill="#F1F2F2"/></g><defs><clipPath id="clip0"><path fill="#fff" d="M0 0h30v30H0z"/></clipPath></defs></svg>