<svg width="30" height="30" fill="none" xmlns="http://www.w3.org/2000/svg"><path d="M28.725 6.675c-.814-1.447-1.697-1.714-3.495-1.815-1.796-.122-6.313-.173-10.226-.173-3.92 0-8.44.051-10.234.171-1.794.103-2.68.368-3.5 1.817C.43 8.121 0 10.611 0 14.995v.013c0 4.365.431 6.874 1.27 8.305.82 1.447 1.704 1.71 3.498 1.832 1.796.105 6.315.166 10.236.166 3.913 0 8.43-.061 10.228-.165 1.798-.121 2.681-.384 3.495-1.831.846-1.431 1.273-3.94 1.273-8.305v-.015c0-4.385-.427-6.875-1.275-8.321z" fill="#F44336"/><path d="M11.25 20.625V9.375L20.625 15l-9.375 5.625z" fill="#FAFAFA"/></svg>